<svg xmlns="http://www.w3.org/2000/svg" xmlns:xlink="http://www.w3.org/1999/xlink" viewBox="0 0 706.15 174.3"><defs><style>.cls-1{fill:url(#White_Black);}.cls-2{fill:url(#White_Black-2);}.cls-3{fill:url(#White_Black-3);}.cls-4{fill:url(#White_Black-4);}.cls-5{isolation:isolate;}.cls-6{fill:#090721;}.cls-7{fill:url(#radial-gradient);}.cls-8{mask:url(#mask);}.cls-9{fill:#442682;mix-blend-mode:multiply;}</style><linearGradient id="White_Black" x1="49.48" y1="64.82" x2="39.35" y2="161.88" gradientUnits="userSpaceOnUse"><stop offset="0" stop-color="#fff"/><stop offset="1"/></linearGradient><linearGradient id="White_Black-2" x1="145.65" y1="82.22" x2="71.94" y2="7.64" xlink:href="#White_Black"/><linearGradient id="White_Black-3" x1="85.14" y1="142.41" x2="204.57" y2="144.94" xlink:href="#White_Black"/><linearGradient id="White_Black-4" x1="123.21" y1="-69.61" x2="123.21" y2="-69.61" xlink:href="#White_Black"/><radialGradient id="radial-gradient" cx="104.86" cy="105.1" r="114.85" gradientUnits="userSpaceOnUse"><stop offset="0" stop-color="#9561ff"/><stop offset="0.2" stop-color="#915bfd"/><stop offset="0.47" stop-color="#844cf6"/><stop offset="0.75" stop-color="#6f32ea"/><stop offset="1" stop-color="#5916de"/></radialGradient><mask id="mask" x="0" y="-69.61" width="200.91" height="245.5" maskUnits="userSpaceOnUse"><path class="cls-1" d="M80.1,121.42s-63.86,43.47-72.3,9.42,49.79-73,49.79-73Z"/><path class="cls-2" d="M96.8,77.6s-18-75.29,16.07-67.12c30.39,7.27,53.6,81.12,53.6,81.12Z"/><path class="cls-3" d="M129.16,111s68.74,31.54,42,55.4-88.8-4.9-88.8-4.9Z"/><path class="cls-4" d="M123.21-69.61"/></mask></defs><title>Asset 4</title><g class="cls-5"><g id="Layer_2" data-name="Layer 2"><g id="Layer_1-2" data-name="Layer 1"><path class="cls-6" d="M342.66,88.76V74.19h20.41v-19h-20.9v-18h-22V85.6a43.06,43.06,0,0,0,43.06,43.07V109.32A20.54,20.54,0,0,1,342.66,88.76Z"/><path class="cls-6" d="M554.35,54.45a27.49,27.49,0,0,0-14.68,4.07,29.14,29.14,0,0,0-10.45,10.92,24.53,24.53,0,0,0-9.75-11.12,28.35,28.35,0,0,0-14.87-3.87,26.81,26.81,0,0,0-14,3.55,21.79,21.79,0,0,0-8.7,9.35V55.06H459.15V79.61h0v49.06h22.51v-39q0-7.63,3.95-11.71t10.67-4.07c4.28,0,7.67,1.29,10.12,3.87s3.7,6.22,3.7,10.86v40h22.5v-39c0-5,1.3-8.88,3.88-11.65s6.12-4.13,10.6-4.13q6.45,0,10.21,3.87c2.5,2.59,3.74,6.22,3.74,10.86v40h22.38V86q0-14.86-7.77-23.23T554.35,54.45Z"/><rect class="cls-6" x="597.5" y="55.23" width="22.51" height="73.45"/><path class="cls-6" d="M410.24,53.76a38,38,0,1,0,38,38A38,38,0,0,0,410.24,53.76Zm0,57.67a19.65,19.65,0,1,1,19.65-19.66A19.65,19.65,0,0,1,410.24,111.43Z"/><path class="cls-6" d="M686.84,100.08a19.64,19.64,0,1,1-.21-17h19.42a38,38,0,1,0,.1,17Z"/><path class="cls-6" d="M284.87,60.64a38.93,38.93,0,1,0,0,60.49v7.54H305V55.12H284.87Zm-24.5,48.83A18.58,18.58,0,1,1,279,90.89,18.59,18.59,0,0,1,260.37,109.47Z"/><circle class="cls-6" cx="608.35" cy="33.77" r="12.69" transform="translate(2.45 97.88) rotate(-9.22)"/><path class="cls-7" d="M200.12,151.61C193.71,173.94,150,181,102.38,167.34c-5.62-1.61-11-3.44-16.21-5.45,17.54-10.23,32-25.4,38.05-32.19l.3,0a10.3,10.3,0,1,0-10.29-10.3,10.44,10.44,0,0,0,.35,2.64C97.34,140.88,72.1,155.71,72.1,155.71l-.06,0C43.62,172,16.85,175.43,5.43,162.29c-15.24-17.54,2.69-58.08,40.05-90.54Q50.87,67.07,56.37,63A175,175,0,0,0,68,105.69a10.14,10.14,0,0,0-1.92,6,10.3,10.3,0,1,0,13.09-9.9c-9-24.1-11.7-41.55-12.47-51.37-.2-3.16-.27-6.24-.21-9.21C66.92,21.05,73.13,6,84.83,1.42c21.64-8.49,53.83,22,71.9,68.06,2.3,5.87,4.26,11.71,5.89,17.45a201.31,201.31,0,0,0-46.44-15.4,10.3,10.3,0,1,0-2,12.07c11.53,2.68,33.23,8.77,52.32,20.13l0,.12a122,122,0,0,1,12.7,8.68c.16.12.33.25.49.39C195.43,125.46,203.58,139.53,200.12,151.61Z"/><g class="cls-8"><path class="cls-9" d="M200.12,151.61C193.71,173.94,150,181,102.38,167.34c-5.62-1.61-11-3.44-16.21-5.45,17.54-10.23,32-25.4,38.05-32.19l.3,0a10.3,10.3,0,1,0-10.29-10.3,10.44,10.44,0,0,0,.35,2.64C97.34,140.88,72.1,155.71,72.1,155.71l-.06,0C43.62,172,16.85,175.43,5.43,162.29c-15.24-17.54,2.69-58.08,40.05-90.54Q50.87,67.07,56.37,63A175,175,0,0,0,68,105.69a10.14,10.14,0,0,0-1.92,6,10.3,10.3,0,1,0,13.09-9.9c-9-24.1-11.7-41.55-12.47-51.37-.2-3.16-.27-6.24-.21-9.21C66.92,21.05,73.13,6,84.83,1.42c21.64-8.49,53.83,22,71.9,68.06,2.3,5.87,4.26,11.71,5.89,17.45a201.31,201.31,0,0,0-46.44-15.4,10.3,10.3,0,1,0-2,12.07c11.53,2.68,33.23,8.77,52.32,20.13l0,.12a122,122,0,0,1,12.7,8.68c.16.12.33.25.49.39C195.43,125.46,203.58,139.53,200.12,151.61Z"/></g></g></g></g></svg>