<svg xmlns="http://www.w3.org/2000/svg" xmlns:xlink="http://www.w3.org/1999/xlink" viewBox="0 0 200.91 174.04"><defs><linearGradient id="White_Black" x1="49.2" y1="63.62" x2="39.08" y2="160.68" gradientTransform="translate(-0.39 1.62) rotate(-0.26)" gradientUnits="userSpaceOnUse"><stop offset="0" stop-color="#fff"/><stop offset="1"/></linearGradient><linearGradient id="White_Black-2" x1="145.38" y1="81.02" x2="71.67" y2="6.44" xlink:href="#White_Black"/><linearGradient id="White_Black-3" x1="84.87" y1="141.22" x2="204.29" y2="143.75" xlink:href="#White_Black"/><linearGradient id="White_Black-4" x1="122.94" y1="-70.8" x2="122.94" y2="-70.8" xlink:href="#White_Black"/><radialGradient id="radial-gradient" cx="104.58" cy="103.9" r="114.85" gradientTransform="translate(-0.39 1.62) rotate(-0.26)" gradientUnits="userSpaceOnUse"><stop offset="0" stop-color="#9561ff"/><stop offset="0.2" stop-color="#915bfd"/><stop offset="0.47" stop-color="#844cf6"/><stop offset="0.75" stop-color="#6f32ea"/><stop offset="1" stop-color="#5916de"/></radialGradient><mask id="mask" x="0" y="-69.75" width="200.91" height="245.42" maskUnits="userSpaceOnUse"><path d="M80,121.48s-63.67,43.75-72.26,9.75S57.19,58,57.19,58Z" style="fill:url(#White_Black)"/><path d="M96.48,77.58S78.1,2.38,112.25,10.38c30.42,7.13,54,80.88,54,80.88Z" style="fill:url(#White_Black-2)"/><path d="M129,110.86s68.9,31.23,42.24,55.21-88.82-4.49-88.82-4.49Z" style="fill:url(#White_Black-3)"/><path d="M122.22-69.75" style="fill:url(#White_Black-4)"/></mask></defs><title>Asset 6</title><g style="isolation:isolate"><g id="Layer_2" data-name="Layer 2"><g id="Layer_1-2" data-name="Layer 1"><path d="M200.15,151.11c-6.31,22.37-50,29.62-97.67,16.18-5.63-1.58-11-3.39-16.24-5.37,17.5-10.31,31.92-25.55,37.91-32.37l.3,0a10.3,10.3,0,1,0-10.34-10.25,9.94,9.94,0,0,0,.36,2.63c-17.15,18.91-42.33,33.86-42.33,33.86l-.06,0C43.74,172.17,17,175.77,5.51,162.69-9.82,145.21,7.93,104.6,45.14,72Q50.51,67.26,56,63.13A175.25,175.25,0,0,0,67.85,105.8a10.29,10.29,0,1,0,11.16-4C69.92,77.75,67.11,60.31,66.3,50.5c-.21-3.17-.3-6.24-.25-9.21C66.34,21.16,72.49,6.1,84.17,1.45c21.59-8.58,53.92,21.74,72.21,67.73,2.32,5.86,4.31,11.69,6,17.42a201.23,201.23,0,0,0-46.51-15.18,10.3,10.3,0,1,0-2,12.08c11.54,2.62,33.27,8.61,52.42,19.89l0,.12A122.26,122.26,0,0,1,179,112.13c.16.12.33.25.49.39C195.33,125,203.55,139,200.15,151.11Z" style="fill:url(#radial-gradient)"/><g style="mask:url(#mask)"><path d="M200.15,151.11c-6.31,22.37-50,29.62-97.67,16.18-5.63-1.58-11-3.39-16.24-5.37,17.5-10.31,31.92-25.55,37.91-32.37l.3,0a10.3,10.3,0,1,0-10.34-10.25,9.94,9.94,0,0,0,.36,2.63c-17.15,18.91-42.33,33.86-42.33,33.86l-.06,0C43.74,172.17,17,175.77,5.51,162.69-9.82,145.21,7.93,104.6,45.14,72Q50.51,67.26,56,63.13A175.25,175.25,0,0,0,67.85,105.8a10.29,10.29,0,1,0,11.16-4C69.92,77.75,67.11,60.31,66.3,50.5c-.21-3.17-.3-6.24-.25-9.21C66.34,21.16,72.49,6.1,84.17,1.45c21.59-8.58,53.92,21.74,72.21,67.73,2.32,5.86,4.31,11.69,6,17.42a201.23,201.23,0,0,0-46.51-15.18,10.3,10.3,0,1,0-2,12.08c11.54,2.62,33.27,8.61,52.42,19.89l0,.12A122.26,122.26,0,0,1,179,112.13c.16.12.33.25.49.39C195.33,125,203.55,139,200.15,151.11Z" style="fill:#442682;mix-blend-mode:multiply"/></g></g></g></g></svg>