<?xml version="1.0" encoding="UTF-8"?>
<svg width="518px" height="435px" viewBox="0 0 518 435" version="1.1" xmlns="http://www.w3.org/2000/svg" xmlns:xlink="http://www.w3.org/1999/xlink">
    <!-- Generator: Sketch 60.1 (88133) - https://sketch.com -->
    <title>scene</title>
    <desc>Created with Sketch.</desc>
    <defs>
        <linearGradient x1="49.373948%" y1="55.5663935%" x2="23.847002%" y2="50.0068926%" id="linearGradient-1">
            <stop stop-color="#F3F3F3" offset="0%"></stop>
            <stop stop-color="#F3F3F3" stop-opacity="0" offset="100%"></stop>
        </linearGradient>
        <ellipse id="path-2" cx="46.568" cy="34.526" rx="18.6592972" ry="41.8762193"></ellipse>
        <ellipse id="path-4" cx="40.804" cy="46.455" rx="17.8734037" ry="43.7911009"></ellipse>
        <ellipse id="path-6" cx="19.867" cy="41.034" rx="14.9385076" ry="39.1982081"></ellipse>
        <linearGradient x1="69.671772%" y1="12.9238579%" x2="45.8978953%" y2="97.8192893%" id="linearGradient-8">
            <stop stop-color="#9F67EF" stop-opacity="0.4" offset="0%"></stop>
            <stop stop-color="#E0D1EB" stop-opacity="0" offset="100%"></stop>
        </linearGradient>
        <linearGradient x1="52.2214081%" y1="-3.99194034%" x2="52.2214081%" y2="102.56102%" id="linearGradient-9">
            <stop stop-color="#FFFFFF" offset="0%"></stop>
            <stop stop-color="#FFFFFF" stop-opacity="0" offset="100%"></stop>
        </linearGradient>
        <linearGradient x1="54.6378366%" y1="12.9238579%" x2="49.0328837%" y2="97.8192893%" id="linearGradient-10">
            <stop stop-color="#FBB2FF" stop-opacity="0.4" offset="0%"></stop>
            <stop stop-color="#FFFFFF" stop-opacity="0" offset="100%"></stop>
        </linearGradient>
        <linearGradient x1="50%" y1="0%" x2="50%" y2="100%" id="linearGradient-11">
            <stop stop-color="#F8C974" offset="0%"></stop>
            <stop stop-color="#E75CDE" offset="51.1243666%"></stop>
            <stop stop-color="#4B39EF" offset="100%"></stop>
        </linearGradient>
    </defs>
    <g id="Illustrations" stroke="none" stroke-width="1" fill="none" fill-rule="evenodd">
        <g id="Balance-Transfer" transform="translate(-140.000000, -74.000000)">
            <g id="scene" transform="translate(129.000000, 40.000000)">
                <g id="bg" transform="translate(11.000000, 182.000000)" fill="#F3F3F3" fill-rule="nonzero" opacity="0.320800781">
                    <path d="M49.312,33.916 C108.232,10.259 287.981,-22.76 434.846,24.173 C504.531,46.442 539.56,85.928 503.045,124.848 C464.345,166.098 252.982,198.436 127.254,168.922 C-60.6419,124.815 3.905,52.147 49.312,33.916 Z" id="Shape"></path>
                </g>
                <g id="shadows" transform="translate(88.000000, 142.000000)" fill-rule="nonzero">
                    <ellipse id="Oval" fill="#F3F3F3" cx="342.5" cy="9.33828" rx="34.5" ry="8.5"></ellipse>
                    <ellipse id="Oval" fill="#F3F3F3" cx="322.169" cy="307.961" rx="76.4417" ry="18.3847"></ellipse>
                    <path d="M11.063,316.949225 L164,316 L237.986,264.902 L73.557,264.902 C61.534,264.902 49.789,268.514 39.844,275.269 L5.382,298.677 C-2.792,304.23 1.181,317.011 11.063,316.949225 Z" id="Shape" fill="url(#linearGradient-1)"></path>
                </g>
                <g id="plants" transform="translate(151.000000, 103.000000)">
                    <g id="plant-3" transform="translate(265.000000, 0.000000)" fill="#F9759C">
                        <path d="M11.743777,17.5479723 C10.562777,16.6359723 9.56077696,15.5319723 9.72077696,14.5549723 C11.323777,13.5089723 13.163777,10.3689723 11.789777,6.18397227 C10.072777,0.951972274 6.29377696,-1.14102773 4.23277696,0.602972274 C2.17177696,2.34697227 0.453776958,12.4619723 5.60677696,14.5549723 C6.94977696,15.5289723 9.46677696,17.4669723 10.408777,18.5619723 C9.66977696,19.2809723 8.98677696,20.2389723 8.44877696,21.4279723 C7.00677696,24.6149723 8.81177696,26.3909723 10.155777,27.3149723 C10.230777,27.9959723 9.65077696,28.9249723 8.87177696,29.7389723 C6.97277696,25.8139723 3.83177696,24.3809723 2.01977696,25.9139723 C-0.0412230415,27.6579723 -1.75922304,37.7739723 3.39377696,39.8659723 C4.99677696,41.0289723 7.23277696,44.1929723 7.50777696,45.0299723 C7.78277696,45.8679723 10.247777,45.3789723 10.934777,45.0299723 C9.33177696,44.2169723 7.23277696,41.5409723 7.50777696,39.8659723 C9.08477696,38.8369723 10.890777,35.7829723 9.64177696,31.6989723 C10.778777,30.4779723 12.439777,28.9059723 13.387777,28.3859723 C18.020777,27.0849723 17.092777,19.0549723 15.386777,17.5539723 C14.487777,16.7639723 13.109777,16.7759723 11.743777,17.5479723 Z" id="Shape"></path>
                    </g>
                    <g id="plant-1" transform="translate(0.000000, 272.000000)">
                        <g id="Clipped" transform="translate(0.000000, 26.000000)">
                            <mask id="mask-3" fill="white">
                                <use xlink:href="#path-2"></use>
                            </mask>
                            <g id="Oval" transform="translate(46.568000, 34.526000) scale(-1, 1) rotate(66.856252) translate(-46.568000, -34.526000) "></g>
                            <ellipse id="Oval" fill="#DAD7F9" fill-rule="nonzero" mask="url(#mask-3)" transform="translate(41.351000, 47.143000) scale(-1, 1) rotate(66.856252) translate(-41.351000, -47.143000) " cx="41.351" cy="47.143" rx="18.6592972" ry="41.8762193"></ellipse>
                        </g>
                        <g id="Clipped" transform="translate(19.000000, 0.000000)">
                            <mask id="mask-5" fill="white">
                                <use xlink:href="#path-4"></use>
                            </mask>
                            <g id="Oval" transform="translate(40.804000, 46.455000) scale(-1, 1) rotate(36.845284) translate(-40.804000, -46.455000) "></g>
                            <ellipse id="Oval" fill="#B1A9FD" fill-rule="nonzero" mask="url(#mask-5)" transform="translate(30.818000, 54.899000) scale(-1, 1) rotate(36.845284) translate(-30.818000, -54.899000) " cx="30.818" cy="54.899" rx="17.8734037" ry="43.7911009"></ellipse>
                        </g>
                        <g id="Clipped" transform="translate(60.000000, 7.000000)">
                            <mask id="mask-7" fill="white">
                                <use xlink:href="#path-6"></use>
                            </mask>
                            <g id="Oval" transform="translate(19.867000, 41.034000) scale(-1, 1) rotate(6.357072) translate(-19.867000, -41.034000) "></g>
                            <ellipse id="Oval" fill="#4B39EF" fill-rule="nonzero" mask="url(#mask-7)" transform="translate(9.035000, 42.492000) scale(-1, 1) rotate(6.357072) translate(-9.035000, -42.492000) " cx="9.035" cy="42.492" rx="14.9385076" ry="39.1982081"></ellipse>
                        </g>
                    </g>
                </g>
                <g id="character" transform="translate(317.000000, 194.000000)" fill-rule="nonzero">
                    <polygon id="Shape" fill="#FCD8E3" points="91.717 249.672 89.782 233.706 98.007 233.706 98.007 249.672"></polygon>
                    <polygon id="Shape" fill="#FCD8E3" points="146.871 243.866 140.098 229.835 146.871 225.481 152.193 239.995"></polygon>
                    <path d="M81.073,183.874 C80.686,179.616 83.815,151.781 85.428,138.396 C89.621,137.912 98.974,137.235 102.845,138.396 C107.683,139.847 120.262,130.171 121.713,131.622 C123.165,133.074 126.068,150.007 126.551,154.361 C126.938,157.845 128.648,176.455 129.454,185.325 L148.323,226.449 C148.71,229.545 142.356,231.609 139.13,232.255 L115.908,190.647 L102.845,163.554 L98.007,188.712 L98.007,235.641 C96.458,237.189 90.911,236.286 88.33,235.641 C86.073,220.159 81.46,188.131 81.073,183.874 Z" id="Shape" fill="#4B39EF"></path>
                    <path d="M23.578,49.446 L29.504,53.227 L25.501,59.942 C23.96,59.158 19.304,56.902 13.009,54.158 C5.14,50.727 -1.407,37.877 1.443,34.714 C4.293,31.551 7.293,33.367 12.728,35.99 C17.076,38.089 21.804,43.929 23.578,49.446 Z" id="Shape" fill="#FCD8E3"></path>
                    <path d="M50.11,80.822 L23.5,60.986 C23.5,55.955 26.726,52.439 28.338,51.31 L54.464,63.405 L100.426,63.405 C99.458,66.631 97.523,74.049 97.523,77.92 C97.523,81.79 88.814,83.403 84.46,83.725 L50.11,80.822 Z" id="Shape" fill="#B1A9FD"></path>
                    <path d="M136,148.5 L137.5,144 L141.579,145 C141.41,146.069 140.971,149.274 140.565,153.549 C140.058,158.892 133.469,165.303 130.934,164.235 C128.4,163.166 128.907,161.029 129.414,157.289 C129.819,154.297 132.959,150.637 136,148.5 Z" id="Shape" fill="#FCD8E3"></path>
                    <path d="M98.5,54 C98.866,55.798 99,60.5 96.257,62.654 C97.934,63.553 102.202,65.081 105.861,64.002 C109.519,62.923 114.178,58.914 114.94,57.116 C112.653,56.217 107.659,45.5 110.891,41.53 C112.72,39.282 115.921,34.338 116.378,24.45 C116.836,14.563 104.946,15.461 100.373,16.81 C95.8,18.158 90.312,27.147 88.94,32.541 C87.568,37.934 88.94,46.923 88.94,48.271 C88.94,49.35 93.818,50.818 96.257,51.417 C96.562,51.118 98.134,52.202 98.5,54 Z" id="Shape" fill="#FCD8E3"></path>
                    <path d="M85.428,80.339 C86.589,73.372 93.169,64.212 96.071,61.47 C97.845,62.115 99.458,62.922 103.329,62.922 C107.199,62.922 112.037,58.084 113.972,55.664 C113.972,55.664 133.325,67.598 135.744,70.663 C138.163,73.727 145.033,109.561 145.42,114.205 C145.904,120.011 144.936,147.435 142.517,148.887 C140.582,150.048 137.195,147.113 135.744,145.5 L133.808,117.592 L121.713,90.015 C121.068,95.821 121.713,105.11 121.713,107.432 C121.713,109.754 121.068,126.139 121.713,131.622 C121.552,132.429 119.681,134.719 113.488,137.428 C107.296,140.137 91.233,140.492 85.428,139.363 L85.428,111.786 C85.428,106.948 83.976,89.047 85.428,80.339 Z" id="Shape" fill="#B1A9FD"></path>
                    <path d="M93.652,23.249 C91.717,23.411 87.847,23.249 87.847,21.314 C87.847,18.895 84.944,17.444 83.976,17.927 C84.46,16.153 85.911,13.67 87.847,14.057 C90.266,14.541 91.717,13.089 91.717,12.122 C90.588,12.122 88.33,11.831 88.33,10.67 C88.33,9.688 87.869,9.098 87.531,8.842 C87.472,8.806 87.415,8.77 87.363,8.735 C87.412,8.76 87.47,8.795 87.531,8.842 C88.569,9.471 90.619,10.199 91.717,8.735 C93.169,6.8 96.071,6.8 97.039,7.767 C98.007,8.735 98.007,9.219 98.974,8.735 C98.007,7.767 98.007,6.413 98.007,4.865 C98.007,2.929 98.007,1.962 98.974,0.51 C99.136,1.155 99.748,2.833 100.909,4.381 C102.361,6.316 105.748,7.767 107.199,7.767 C108.65,7.767 117.359,12.122 116.391,15.992 C115.424,19.863 117.843,24.701 116.391,28.087 C114.94,31.474 113.972,37.764 112.521,39.699 C111.069,41.634 109.618,42.602 109.618,43.569 C107.359,39.616 109.618,31.958 107.199,28.087 C104.275,23.41 98.974,21.314 93.652,23.249 Z" id="Shape" fill="#F9759C"></path>
                    <path d="M143.001,250.639 C144.936,248.317 145.742,244.188 145.904,242.414 L152.677,238.544 L157.999,250.639 C157.838,251.929 156.257,255.284 151.226,258.38 C146.194,261.477 137.518,262.573 133.808,262.734 C133.647,261.767 133.421,259.348 133.808,257.413 C134.292,254.993 140.582,253.542 143.001,250.639 Z" id="Shape" fill="#FFFFFF"></path>
                    <path d="M91.717,249.672 C93.169,250.155 96.555,249.188 98.007,248.22 L99.458,258.864 C97.523,260.477 92.685,264.089 88.814,265.637 C84.944,267.186 78.493,267.895 75.751,268.056 C74.203,265.734 75.106,263.218 75.751,262.251 C76.88,261.606 79.912,260.025 83.008,258.864 C86.105,257.703 90.266,252.091 91.717,249.672 Z" id="Shape" fill="#FFFFFF"></path>
                </g>
                <g id="mobile" transform="translate(234.000000, 134.000000)">
                    <path d="M0.546,78.253 L0.546,310.505 C0.546,322.579 14.083,329.705 24.037,322.871 L35.5,315 L84.984,275.571 C90.937,270.827 94.405,263.63 94.405,256.018 L94.405,7.992 C94.405,3.272 89.206,0.401 85.211,2.913 L19.252,44.392 C7.611,51.713 0.546,64.501 0.546,78.253 Z" id="Shape" fill="#F3F3F3" fill-rule="nonzero"></path>
                    <path d="M4.417,80.334 L4.417,307.185 C4.417,319.375 18.187,326.475 28.118,319.403 L89.712,275.54 C96.299,270.849 100.211,263.262 100.211,255.176 L100.211,9.318 C100.211,5.439 95.984,3.037 92.651,5.023 L23.939,45.973 C11.833,53.188 4.417,66.241 4.417,80.334 Z" id="Shape" stroke="#F3F3F3" stroke-width="2" fill="#FFFFFF" fill-rule="nonzero"></path>
                    <path d="M4.417,80.003 L4.417,131.63 C4.417,131.63 34.238,150.495 63.441,133.565 C96.824,114.213 100.694,72.605 100.694,72.605 L100.694,7.513 C100.694,3.605 96.413,1.208 93.081,3.25 L23.51,45.902 C11.647,53.174 4.417,66.089 4.417,80.003 Z" id="Shape" fill="#F2F1FF" fill-rule="nonzero"></path>
                    <ellipse id="Oval" fill="#4B39EF" fill-rule="nonzero" transform="translate(59.341000, 134.742000) rotate(9.601140) translate(-59.341000, -134.742000) " cx="59.341" cy="134.742" rx="13.3558" ry="20.0337"></ellipse>
                    <polygon id="Shape" fill="#EAEAEA" fill-rule="nonzero" points="48.443 245.325 48.443 239.036 90.051 214.361 90.051 220.167"></polygon>
                    <polygon id="Shape" fill="#EAEAEA" fill-rule="nonzero" points="48.443 256.453 48.443 250.163 76.504 233.714 76.504 239.519"></polygon>
                    <ellipse id="Oval" fill="#D1CCFE" fill-rule="nonzero" transform="translate(32.937000, 255.913000) rotate(9.601140) translate(-32.937000, -255.913000) " cx="32.937" cy="255.913" rx="9.37328" ry="14.0599"></ellipse>
                    <polygon id="Shape" fill="#EAEAEA" fill-rule="nonzero" points="48.443 197.912 48.443 191.622 90.051 166.948 90.051 172.754"></polygon>
                    <polygon id="Shape" fill="#EAEAEA" fill-rule="nonzero" points="48.443 209.039 48.443 202.75 76.504 186.3 76.504 192.106"></polygon>
                    <ellipse id="Oval" fill="#D1CCFE" fill-rule="nonzero" transform="translate(32.937000, 208.500000) rotate(9.601140) translate(-32.937000, -208.500000) " cx="32.937" cy="208.5" rx="9.37328" ry="14.0599"></ellipse>
                    <polyline id="Shape" stroke="#FFFFFF" stroke-width="3" stroke-linecap="round" stroke-linejoin="round" points="55.216 137.608 59.208 142.758 65.86 128.243"></polyline>
                    <path d="M91,1 C87.534,1.502 86.18,2.453 85.213,2.937 L90.534,4.872 C94.5,2 98.759,3.421 98.759,3.421 C97.63,2.615 94.466,0.498 91,1 Z" id="Shape" fill="#F3F3F3" fill-rule="nonzero"></path>
                </g>
                <g id="lines" transform="translate(70.000000, 38.000000)" stroke="#F9B2C8" stroke-dasharray="9.289999999999999" stroke-linecap="round" stroke-linejoin="round" stroke-width="2.78633">
                    <path d="M401.5,87.109 C406.5,-33 230,-30.8911 230,112.609" id="Shape" opacity="0.26906622"></path>
                    <path d="M8.276,276.011 C-44,38 195,-9 195,134.5" id="Shape" opacity="0.63936942"></path>
                </g>
                <g id="card" transform="translate(102.604118, 315.096932) rotate(-54.000000) translate(-102.604118, -315.096932) translate(44.604118, 231.596932)" fill-rule="nonzero">
                    <path d="M54.1246902,80.8996477 L24.9774708,48.4935563 C-39.2406836,100.253286 36.13992,166.062274 115.914287,166.062274 C52.9153209,166.062274 3.58954855,119.831966 54.1246902,80.8996477 Z" id="Shape" fill="url(#linearGradient-8)"></path>
                    <path d="M78.7375956,2.86532972 L23.0576173,49.0608951 C21.4473169,50.3967987 21.2882248,52.802951 22.7092371,54.3376471 L48.1752388,81.8437098 C49.5232401,83.2998762 51.7919924,83.4196902 53.2873679,82.1129547 L106.491278,35.6206366 C107.990259,34.31076 108.161971,32.048205 106.877967,30.5287661 L83.888033,3.31954593 C82.5891565,1.78251633 80.2870534,1.57950565 78.7375956,2.86532972 Z" id="Shape" fill="#3222C8"></path>
                    <path d="M79.2901729,1.56350118 L23.6101945,47.7591455 C21.9998941,49.0950475 21.840802,51.5011969 23.2618144,53.0354424 L48.7278161,80.5419208 C50.0758173,81.9980854 52.3445697,82.1178992 53.8399452,80.8111654 L107.043856,34.3184545 C108.542837,33.0090282 108.714548,30.7460272 107.430544,29.2265901 L84.4406103,2.01776171 C83.1417338,0.480733968 80.8396307,0.27772353 79.2901729,1.56350118 Z" id="Shape" fill="#4B39EF"></path>
                    <path d="M92.9735141,20.7081477 L88.6697419,15.6807381 C88.1421885,15.0646545 87.2321477,14.9960462 86.623051,15.5272967 L78.8575195,22.2972635 C78.2326549,22.842421 78.162825,23.808036 78.7029928,24.4417353 L83.1450732,29.6559633 C83.6807359,30.2845634 84.6110499,30.3448274 85.2192455,29.7899349 L92.8460183,22.8331496 C93.4501593,22.2819657 93.5073747,21.3316485 92.9735141,20.7081477 Z" id="Shape" fill="url(#linearGradient-9)" opacity="0.7"></path>
                    <path d="M42.5371478,58.4110843 L72.4731776,58.4267299 C72.8346774,58.4269188 73.1276838,58.7199252 73.1278727,59.081425 C73.1280615,59.4424366 72.8355567,59.7352474 72.474545,59.7354361 C72.4743173,59.7354362 72.4740895,59.7354362 72.4738617,59.7354361 L42.5378319,59.7197905 C42.1763321,59.7196016 41.8833257,59.4265952 41.8831368,59.0650954 C41.8829481,58.7040838 42.1754528,58.411273 42.5364645,58.4110843 C42.5366922,58.4110842 42.53692,58.4110842 42.5371478,58.4110843 Z" id="Rectangle-path" fill-opacity="0.2" fill="#FFFFFF" transform="translate(57.505505, 59.073260) rotate(-39.705404) translate(-57.505505, -59.073260) "></path>
                    <path d="M43.8703306,57.4349712 L86.6735895,57.4573417 C87.0573196,57.4575422 87.3683443,57.7685668 87.3685449,58.152297 C87.3687452,58.5355089 87.0582529,58.8463259 86.675041,58.8465262 C86.6747992,58.8465263 86.6745575,58.8465263 86.6743157,58.8465262 L43.8710568,58.8241558 C43.4873267,58.8239552 43.176302,58.5129306 43.1761014,58.1292005 C43.1759011,57.7459886 43.4863934,57.4351715 43.8696053,57.4349712 C43.8698471,57.4349711 43.8700888,57.4349711 43.8703306,57.4349712 Z" id="Rectangle-path" fill-opacity="0.2" fill="#FFFFFF" transform="translate(65.272323, 58.140749) rotate(-39.705404) translate(-65.272323, -58.140749) "></path>
                </g>
                <g id="card" transform="translate(436.840932, 114.127089) scale(-1, -1) rotate(-42.000000) translate(-436.840932, -114.127089) translate(381.340932, 11.627089)" fill-rule="nonzero">
                    <path d="M60.2253283,75.3329221 L33.0744938,45.363379 C-26.7451569,93.2313993 1.97136048,204.028997 76.2817295,204.028997 C17.5977613,204.028997 13.1514977,111.337998 60.2253283,75.3329221 Z" id="Shape" fill="url(#linearGradient-10)"></path>
                    <path d="M83.0662865,2.96140946 L31.2709578,45.7350811 C29.7730039,46.9720289 29.6250113,49.1999476 30.9468833,50.6209626 L54.6361871,76.0895392 C55.8901418,77.4378414 58.0006091,77.5487802 59.3916561,76.33884 L108.883666,33.2903973 C110.278067,32.0775486 110.437798,29.9825903 109.243376,28.5757024 L87.8573911,3.38198003 C86.6491339,1.95880448 84.5076426,1.77083162 83.0662865,2.96140946 Z" id="Shape" fill="#C326B9"></path>
                    <path d="M82.9922723,1.54909876 L31.1969436,44.3228435 C29.6989897,45.5597898 29.5509971,47.7877059 30.872869,49.2083036 L54.5621729,74.6772651 C55.8161276,76.0255656 57.9265949,76.1365044 59.3176419,74.9265656 L108.809652,31.8777592 C110.204053,30.6653275 110.363784,28.5699562 109.169362,27.16307 L87.7833769,1.96971037 C86.5751196,0.546536529 84.4336284,0.358563902 82.9922723,1.54909876 Z" id="Shape" fill="#E75CDE"></path>
                    <path d="M95.9209133,19.4923826 L91.9040592,14.8001336 C91.4116761,14.2251222 90.5623046,14.1610878 89.9938144,14.6569216 L82.745985,20.9755572 C82.162778,21.484371 82.0976034,22.3856116 82.6017601,22.9770643 L86.7477018,27.8436771 C87.2476536,28.4303705 88.1159467,28.4866169 88.6835959,27.9687172 L95.8019172,21.4757177 C96.3657821,20.9612793 96.4191832,20.0743166 95.9209133,19.4923826 Z" id="Shape" fill="url(#linearGradient-9)" opacity="0.7"></path>
                    <path d="M49.3129865,54.3642008 L77.0451007,54.34651 C77.3796089,54.3462967 77.6509542,54.6172961 77.6511676,54.9518042 C77.6511678,54.9520617 77.6511678,54.9523193 77.6511676,54.9525768 C77.6509539,55.287637 77.3793874,55.5592036 77.0443272,55.5594174 L49.312213,55.5771081 C48.9777049,55.5773215 48.7063595,55.3063221 48.7061461,54.971814 C48.7061459,54.9715564 48.7061459,54.9712989 48.7061461,54.9710413 C48.7063598,54.6359811 48.9779263,54.3644145 49.3129865,54.3642008 Z" id="Rectangle-path" fill-opacity="0.2" fill="#FFFFFF" transform="translate(63.178657, 54.961809) rotate(-39.705404) translate(-63.178657, -54.961809) "></path>
                    <path d="M50.5411713,53.4656255 L90.1934122,53.4403306 C90.5484908,53.4401041 90.8365224,53.7277686 90.836749,54.0828471 C90.8367491,54.0831205 90.8367491,54.0833939 90.836749,54.0836673 C90.8365221,54.4393319 90.5482557,54.7275983 90.1925911,54.7278252 L50.5403502,54.75312 C50.1852716,54.7533465 49.8972399,54.4656821 49.8970134,54.1106036 C49.8970133,54.1103302 49.8970133,54.1100568 49.8970134,54.1097834 C49.8972403,53.7541188 50.1855067,53.4658523 50.5411713,53.4656255 Z" id="Rectangle-path" fill-opacity="0.2" fill="#FFFFFF" transform="translate(70.366881, 54.096725) rotate(-39.705404) translate(-70.366881, -54.096725) "></path>
                </g>
                <path d="M298.9298,205.576347 C302.384768,196.200064 302.915506,188.493504 299.707068,186.47181 C296.513531,184.508 290.52075,188.781316 284.508456,196.473545 C278.148209,195.521224 272.235185,197.778169 269.496011,202.660157 C266.767304,207.47478 267.900332,213.648395 271.846497,218.772394 C268.528737,227.446533 267.995894,234.487848 271.043854,236.543428 C274.107885,238.642725 279.9731,235.111106 285.971673,228.049265 C292.426315,229.674154 298.548697,228.052425 301.423398,223.141466 C304.307341,218.185096 303.09436,211.30213 298.9298,205.576347 Z M294.633396,190.18753 C296.018673,189.392508 297.079738,189.224168 297.785231,189.687638 C299.640837,190.921149 299.364941,196.656546 296.996154,204.316068 C295.634909,202.797403 294.072639,201.419798 292.328511,200.248423 C290.585484,199.092604 288.789397,198.232169 287,197.645206 C289.715512,194.132156 292.377125,191.48685 294.633396,190.18753 Z M296,209.023803 C294.798557,211.742865 293.298149,214.626061 291.493506,217.550505 C289.74487,220.371164 287.862312,222.954631 285.967543,225.229104 C283.940474,224.593217 281.908372,223.680953 279.992001,222.467098 C278.028338,221.24007 276.363691,219.83587 275,218.36044 C276.215978,215.665355 277.700514,212.855196 279.398525,210.087559 C281.121537,207.266366 282.979032,204.632786 284.860129,202.262534 C286.885607,202.783502 288.93035,203.60938 290.872804,204.780982 C292.878187,206.007912 294.589527,207.462108 296,209.023803 Z M271.79405,204.913294 C272.372116,203.881565 273.312237,203.006609 274.59321,202.313117 C276.690003,201.177483 279.273047,200.738405 282,200.981553 C280.437044,203.221713 278.899813,205.66214 277.438817,208.259596 C275.984457,210.833814 274.714044,213.37306 273.633898,215.815639 C270.961754,211.861791 270.274484,207.612166 271.79405,204.913294 Z M276.279442,233.966951 C274.898752,234.504609 273.849643,234.549614 273.156407,234.106603 C271.868545,233.284233 271.642481,230.509543 272.548084,226.665273 C272.887788,225.227628 273.389331,223.670275 274.000636,222.048471 C275.340073,223.348957 276.886018,224.563976 278.621801,225.644272 C280.370759,226.741568 282.181323,227.619483 284,228.281292 C281.229293,231.076939 278.540478,233.082956 276.279442,233.966951 Z M299.119582,222.714465 C298.478086,223.721056 297.439695,224.513373 296.029691,225.070392 C293.735499,225.977521 290.931696,226.122451 288,225.594375 C289.679147,223.516717 291.340663,221.204918 292.925204,218.699499 C294.50933,216.181629 295.899296,213.656439 297.083644,211.194202 C300.039572,215.507878 300.805568,220.056781 299.119582,222.714465 Z" id="atomic" fill="url(#linearGradient-11)"></path>
            </g>
        </g>
    </g>
</svg>