<?xml version="1.0" encoding="UTF-8"?>
<svg width="246px" height="136px" viewBox="0 0 246 136" version="1.1" xmlns="http://www.w3.org/2000/svg" xmlns:xlink="http://www.w3.org/1999/xlink">
    <!-- Generator: Sketch 60.1 (88133) - https://sketch.com -->
    <title>atomic-bank</title>
    <desc>Created with Sketch.</desc>
    <defs>
        <path d="M80.9431841,17.58828 C67.9768695,11.8279158 54.9972424,6.0408832 42.0043029,0.227182284 C41.4081196,-0.075727428 40.7034639,-0.075727428 40.1072805,0.227182284 C27.0943724,6.07421864 14.0614955,11.8712518 1.00865008,17.6182819 C0.353696028,17.7929211 -0.0723956277,18.4245665 0.0102172295,19.0983755 C0.0102172295,28.0089388 0.0102172295,36.9095016 0.0601388721,45.820065 C0.078426408,48.7372617 0.315388394,51.6489648 0.769026196,54.5306157 C2.22862566,63.7057925 5.89137064,72.3885585 11.4422734,79.8322155 C18.5411309,89.4028206 27.6069012,96.2432531 39.088879,99.7034719 C40.3295781,100.098843 41.6621934,100.098843 42.9028925,99.7034719 C53.5109566,96.5222466 62.83114,90.0382577 69.511128,81.1923015 C77.6424298,70.9649226 82.0452596,58.2640667 81.9915386,45.1900252 L81.9915386,19.1883811 C82.0672196,18.4729802 81.6285447,17.8034318 80.9431841,17.58828 Z" id="path-1"></path>
        <filter x="-34.1%" y="-26.0%" width="168.3%" height="156.0%" filterUnits="objectBoundingBox" id="filter-2">
            <feMorphology radius="2.5" operator="dilate" in="SourceAlpha" result="shadowSpreadOuter1"></feMorphology>
            <feOffset dx="0" dy="2" in="shadowSpreadOuter1" result="shadowOffsetOuter1"></feOffset>
            <feGaussianBlur stdDeviation="6.5" in="shadowOffsetOuter1" result="shadowBlurOuter1"></feGaussianBlur>
            <feColorMatrix values="0 0 0 0 0   0 0 0 0 0   0 0 0 0 0  0 0 0 0.108009178 0" type="matrix" in="shadowBlurOuter1"></feColorMatrix>
        </filter>
        <linearGradient x1="50%" y1="0%" x2="50%" y2="100%" id="linearGradient-3">
            <stop stop-color="#F8C974" offset="0%"></stop>
            <stop stop-color="#E75CDE" offset="51.1243666%"></stop>
            <stop stop-color="#4B39EF" offset="100%"></stop>
        </linearGradient>
    </defs>
    <g id="Docs" stroke="none" stroke-width="1" fill="none" fill-rule="evenodd">
        <g id="Artboard" transform="translate(-64.000000, -40.000000)">
            <g id="atomic-bank" transform="translate(64.000000, 56.000000)">
                <g id="Group" transform="translate(32.000000, 0.000000)">
                    <g id="Group-4">
                        <g id="Group-3" transform="translate(51.000000, 0.000000)">
                            <g id="noun_Shield_2647221">
                                <g id="Shape">
                                    <use fill="black" fill-opacity="1" filter="url(#filter-2)" xlink:href="#path-1"></use>
                                    <use fill="#FFFFFF" fill-rule="evenodd" xlink:href="#path-1"></use>
                                </g>
                            </g>
                            <path d="M57.1361624,50.0001266 C61.4562957,42.7599794 62.4502999,35.7928498 59.0081546,32.3359449 C55.5640429,28.8770652 48.6256769,29.874838 41.4184086,34.2134955 C34.2111404,29.8758254 27.2727744,28.8780526 23.8291543,32.3364386 C20.387009,35.7933435 21.3810132,42.7624479 25.7001633,49.9996328 C21.3805216,57.2387926 20.3855342,64.2064159 23.8291543,67.6652956 C27.2727744,71.1222005 34.2111404,70.123934 41.4184086,65.7862639 C48.6276433,70.1254151 55.5640429,71.1222005 59.007663,67.6652956 C62.4498083,64.2064159 61.458262,57.2402737 57.1361624,50.0001266 Z M53.230935,33.5386042 C54.7814243,33.5386042 55.9450287,33.9177677 56.6893029,34.6642459 C58.6428998,36.6262196 58.0638014,41.4225394 55.1162003,46.9189293 C53.7048322,44.967817 52.064381,43.0300347 50.2110695,41.1682826 C48.3538251,39.3030745 46.4189088,37.6536145 44.4726858,36.2327387 C47.6434709,34.5111981 50.6982397,33.5386042 53.230935,33.5386042 Z M53.2584643,50.0001266 C51.8072771,52.1615561 50.0193476,54.3698874 47.893201,56.5056444 C45.8289953,58.5801823 43.6251768,60.3782467 41.4184086,61.8766338 C39.2121321,60.377753 37.0083136,58.5791948 34.9426331,56.5026821 C32.8189445,54.3703811 31.0329814,52.1669868 29.5837605,50.0075321 C31.0895148,47.7656291 32.8990744,45.5479174 34.9406668,43.4955962 C37.0083136,41.4210583 39.2101658,39.6234875 41.4184086,38.1231256 C43.623702,39.6234875 45.8270289,41.4210583 47.893201,43.4955962 C50.0193476,45.6313532 51.8072771,47.8382033 53.2584643,50.0001266 Z M26.1489891,34.6642459 C26.8917886,33.9177677 28.0534266,33.5386042 29.6053907,33.5386042 C32.1385776,33.5386042 35.1933464,34.5116918 38.3646231,36.2327387 C36.4159421,37.6531208 34.4815174,39.3030745 32.6232899,41.1682826 C30.7699783,43.029541 29.1314935,44.9673233 27.7201254,46.9189293 C24.7735075,41.4225394 24.1939175,36.6262196 26.1489891,34.6642459 Z M29.6058823,66.4601678 C28.0539182,66.4601678 26.8917886,66.0819917 26.1480059,65.3369946 C24.7641672,63.9467284 24.6614239,60.937118 25.8712382,57.2871754 C26.3244884,55.9275187 26.9630698,54.516517 27.7260246,53.0911979 C29.1354263,55.0383605 30.773911,56.9716995 32.6242731,58.8309831 C34.4834838,60.6966849 36.4169253,62.347626 38.3656063,63.7680081 C35.193838,65.489055 32.140544,66.4601678 29.6058823,66.4601678 Z M56.6893029,65.3365009 C55.9450287,66.0819917 54.7833907,66.4611552 53.230935,66.4611552 C50.6982397,66.4611552 47.6434709,65.4885613 44.4731774,63.7675144 C46.4194004,62.3486134 48.3543167,60.698166 50.211561,58.834439 C52.0648726,56.9716995 53.7048322,55.0334235 55.1166918,53.0828049 C58.0638014,58.5791948 58.6428998,63.3745272 56.6893029,65.3365009 Z" id="Shape" fill="url(#linearGradient-3)"></path>
                        </g>
                        <g id="Group-2" transform="translate(0.000000, 44.000000)" fill="#454545">
                            <circle id="Oval" opacity="0.197684152" cx="3" cy="21" r="3"></circle>
                            <circle id="Oval" opacity="0.394624256" cx="19" cy="11" r="3"></circle>
                            <circle id="Oval" opacity="0.774181548" cx="36" cy="3" r="3"></circle>
                            <circle id="Oval" opacity="0.2" cx="147" cy="3" r="3"></circle>
                            <circle id="Oval" opacity="0.394624256" cx="165" cy="11" r="3"></circle>
                            <circle id="Oval" cx="182" cy="21" r="3"></circle>
                        </g>
                    </g>
                </g>
                <g id="Group-4" transform="translate(0.000000, 76.000000)" fill="#000000" fill-rule="nonzero" opacity="0.544317336">
                    <g id="Group">
                        <g id="bank" transform="translate(215.000000, 0.000000)">
                            <path d="M2.8675,28.0313636 C1.8104,28.0313636 0.9548,28.9153636 0.9548,30.0033636 C0.9548,31.0929091 1.8104,31.9753636 2.86595,31.9753636 L28.32315,31.9753636 C29.3787,31.9753636 30.2343,31.0944545 30.2343,30.0033636 C30.2343,28.9153636 29.3787,28.0313636 28.32315,28.0313636 L2.8675,28.0313636 Z M17.5956,16.4234545 C17.5956,15.3725455 16.709,14.5179091 15.6178,14.5179091 C14.52505,14.5179091 13.64,15.371 13.64,16.4234545 L13.64,23.5371818 C13.64,24.5896364 14.5235,25.4427273 15.6178,25.4427273 C16.709,25.4427273 17.5956,24.5896364 17.5956,23.5371818 L17.5956,16.4234545 Z M8.2956,16.4234545 C8.2956,15.3725455 7.409,14.5179091 6.3178,14.5179091 C5.22505,14.5179091 4.34,15.371 4.34,16.4234545 L4.34,23.5371818 C4.34,24.5896364 5.2235,25.4427273 6.3178,25.4427273 C7.409,25.4427273 8.2956,24.5896364 8.2956,23.5371818 L8.2956,16.4234545 Z M26.8956,16.4234545 C26.8956,15.3725455 26.009,14.5179091 24.9178,14.5179091 C23.82505,14.5179091 22.94,15.371 22.94,16.4234545 L22.94,23.5371818 C22.94,24.5896364 23.8235,25.4427273 24.9178,25.4427273 C26.009,25.4427273 26.8956,24.5896364 26.8956,23.5371818 L26.8956,16.4234545 Z M29.19735,8.15836364 C29.1447274,8.11513474 29.0893258,8.07538326 29.0315,8.03936364 L17.3817,0.771090909 C16.6408,0.309 15.46745,0.296636364 14.7312,0.724727273 L2.0863,8.08727273 C2.02697502,8.1215644 1.97001478,8.15977073 1.9158,8.20163636 C1.3423,8.54163636 0.9548,9.18145455 0.9548,9.91245455 C0.9548,11.002 1.8104,11.8844545 2.86595,11.8844545 L28.32315,11.8844545 C29.3787,11.8844545 30.2343,11.0035455 30.2343,9.91245455 C30.2343,9.149 29.8127,8.486 29.1958,8.15836364 L29.19735,8.15836364 Z" id="Shape"></path>
                        </g>
                        <g id="bank">
                            <path d="M1.9127,28.0313636 C0.8556,28.0313636 -7.10542736e-15,28.9153636 -7.10542736e-15,30.0033636 C-7.10542736e-15,31.0929091 0.8556,31.9753636 1.91115,31.9753636 L27.36835,31.9753636 C28.4239,31.9753636 29.2795,31.0944545 29.2795,30.0033636 C29.2795,28.9153636 28.4239,28.0313636 27.36835,28.0313636 L1.9127,28.0313636 Z M16.6408,16.4234545 C16.6408,15.3725455 15.7542,14.5179091 14.663,14.5179091 C13.57025,14.5179091 12.6852,15.371 12.6852,16.4234545 L12.6852,23.5371818 C12.6852,24.5896364 13.5687,25.4427273 14.663,25.4427273 C15.7542,25.4427273 16.6408,24.5896364 16.6408,23.5371818 L16.6408,16.4234545 Z M7.3408,16.4234545 C7.3408,15.3725455 6.4542,14.5179091 5.363,14.5179091 C4.27025,14.5179091 3.3852,15.371 3.3852,16.4234545 L3.3852,23.5371818 C3.3852,24.5896364 4.2687,25.4427273 5.363,25.4427273 C6.4542,25.4427273 7.3408,24.5896364 7.3408,23.5371818 L7.3408,16.4234545 Z M25.9408,16.4234545 C25.9408,15.3725455 25.0542,14.5179091 23.963,14.5179091 C22.87025,14.5179091 21.9852,15.371 21.9852,16.4234545 L21.9852,23.5371818 C21.9852,24.5896364 22.8687,25.4427273 23.963,25.4427273 C25.0542,25.4427273 25.9408,24.5896364 25.9408,23.5371818 L25.9408,16.4234545 Z M28.24255,8.15836364 C28.1899274,8.11513474 28.1345258,8.07538326 28.0767,8.03936364 L16.4269,0.771090909 C15.686,0.309 14.51265,0.296636364 13.7764,0.724727273 L1.1315,8.08727273 C1.07217502,8.1215644 1.01521478,8.15977073 0.961,8.20163636 C0.3875,8.54163636 -7.10542736e-15,9.18145455 -7.10542736e-15,9.91245455 C-7.10542736e-15,11.002 0.8556,11.8844545 1.91115,11.8844545 L27.36835,11.8844545 C28.4239,11.8844545 29.2795,11.0035455 29.2795,9.91245455 C29.2795,9.149 28.8579,8.486 28.241,8.15836364 L28.24255,8.15836364 Z" id="Shape"></path>
                        </g>
                    </g>
                </g>
            </g>
        </g>
    </g>
</svg>